name grf.mot
datacolumns 19
datarows 31
range 1.7525 1.79
DataType=double
version=3
OpenSimVersion=4.4
endheader
time	R_ground_force_vx	R_ground_force_vy	R_ground_force_vz	R_ground_force_px	R_ground_force_py	R_ground_force_pz	L_ground_force_vx	L_ground_force_vy	L_ground_force_vz	L_ground_force_px	L_ground_force_py	L_ground_force_pz	R_ground_torque_x	R_ground_torque_y	R_ground_torque_z	L_ground_torque_x	L_ground_torque_y	L_ground_torque_z
1.7525	-82.67201688047246	766.2071477177947	-31.78016558236902	0.3179164845054786	0.0006601579920250528	0.24671738209678845	0.0	0.0	0.0	0.0	0.0	0.0	-0.01324819900369635	-2.016018284838724	0.005621093416598217	0.0	0.0	0.0
1.75375	-80.6806457627338	757.9834215622913	-30.635205329266032	0.3185528737259053	0.0006560747795994346	0.2467528165061339	0.0	0.0	0.0	0.0	0.0	0.0	-0.013280468736956937	-2.020928867196527	0.005634785178409453	0.0	0.0	0.0
1.755	-79.48560918553413	749.1717453818449	-29.653649831419603	0.31909728558942607	0.0006527821014174305	0.24685499898991745	0.0	0.0	0.0	0.0	0.0	0.0	-0.012627248305000663	-1.9215263495798556	0.005357629538715908	0.0	0.0	0.0
1.75625	-78.82485006492456	741.800967605972	-29.42611893064083	0.31981939520918795	0.0006484937567590437	0.24701889427395068	0.0	0.0	0.0	0.0	0.0	0.0	-0.012259830514746082	-1.8656152794697518	0.005201737426786968	0.0	0.0	0.0
1.7575	-76.19347293780747	736.027073046042	-28.873879568001087	0.32062021749335246	0.0006420523213541773	0.24659609422537035	0.0	0.0	0.0	0.0	0.0	0.0	-0.012693719537366881	-1.9316414769136667	0.005385832693464917	0.0	0.0	0.0
1.75875	-74.67465569492398	725.8574534887363	-28.223268367907608	0.3210458747413501	0.0006396402575565027	0.24673422165912484	0.0	0.0	0.0	0.0	0.0	0.0	-0.011968012451339577	-1.8212084471516685	0.005077921608908548	0.0	0.0	0.0
1.76	-73.11963813918472	721.7800222485714	-29.175780826513044	0.32121626821575616	0.0006395246828864788	0.2470943661825822	0.0	0.0	0.0	0.0	0.0	0.0	-0.015149698950444773	-2.3053752502794698	0.006427882990739369	0.0	0.0	0.0
1.76125	-71.44094534791451	709.584536761022	-25.84853718789313	0.3210779973665578	0.0006403564471347359	0.24706679364785594	0.0	0.0	0.0	0.0	0.0	0.0	-0.011776783299881228	-1.792108532074407	0.00499678477483591	0.0	0.0	0.0
1.7625	-70.94263252904787	702.9761114075786	-25.91490974407008	0.32280834147785514	0.0006295448231772384	0.24726737945219382	0.0	0.0	0.0	0.0	0.0	0.0	-0.011878636554925043	-1.8076078482064626	0.00504000020821113	0.0	0.0	0.0
1.76375	-69.59510880346589	691.9620267125011	-24.844134088430664	0.32325870285837116	0.0006271053947795056	0.24745391699223454	0.0	0.0	0.0	0.0	0.0	0.0	-0.010999585958787203	-1.6738400753478413	0.004667026831420178	0.0	0.0	0.0
1.765	-68.04412423312282	686.5353258523152	-23.789342585135852	0.32390006605278937	0.00062292205158888	0.24746516229000085	0.0	0.0	0.0	0.0	0.0	0.0	-0.011136640280340651	-1.6946960436338572	0.004725177765323381	0.0	0.0	0.0
1.7662499999999999	-66.49850296324348	680.7663623633188	-24.02755094697825	0.3239189169994509	0.0006226971480256361	0.24742892937445396	0.0	0.0	0.0	0.0	0.0	0.0	-0.011609206921304129	-1.7666079305794995	0.0049256836026589	0.0	0.0	0.0
1.7675	-63.24306119171298	674.9869660054406	-23.977703637486243	0.32487742933726227	0.0006154305077179182	0.24708182296894185	0.0	0.0	0.0	0.0	0.0	0.0	-0.01217530126686491	-1.8527522096076097	0.005165872416105721	0.0	0.0	0.0
1.76875	-61.303097125016706	665.7439552587476	-24.082015663616314	0.3256289657176543	0.0006119821264462193	0.24761632819887444	0.0	0.0	0.0	0.0	0.0	0.0	-0.011743688688504327	-1.7870724255329178	0.004982743024550934	0.0	0.0	0.0
1.77	-60.574245095624356	656.1701603076253	-24.182468597815152	0.3261625104721018	0.0006092151950122971	0.24788145859436225	0.0	0.0	0.0	0.0	0.0	0.0	-0.014088477978287372	-2.1438860634453403	0.005977616338005244	0.0	0.0	0.0
1.77125	-57.74636225622289	647.860114719045	-21.66186312444168	0.32643173536710307	0.0006080756426459894	0.2481072841561595	0.0	0.0	0.0	0.0	0.0	0.0	-0.012047760069570252	-1.833343882049689	0.005111757816509351	0.0	0.0	0.0
1.7725	-56.21896043143904	639.3811016954378	-22.059478998608547	0.3278784019258524	0.0005984657377397011	0.248070277558169	0.0	0.0	0.0	0.0	0.0	0.0	-0.011745225640891987	-1.787306308199957	0.004983395139826791	0.0	0.0	0.0
1.77375	-54.08806602179898	633.8623210003187	-22.299801709145147	0.3281591429149553	0.0005971431958861486	0.24825761547534267	0.0	0.0	0.0	0.0	0.0	0.0	-0.011089537624827084	-1.6875282908884977	0.004705192526066502	0.0	0.0	0.0
1.775	-52.7021059956188	628.942970299364	-21.913866778463156	0.32923748664819247	0.0005898393998197997	0.24817961035895672	0.0	0.0	0.0	0.0	0.0	0.0	-0.011201877720652556	-1.7046234211202744	0.004752857433039019	0.0	0.0	0.0
1.77625	-51.18396144710266	618.8566158574126	-21.764373188495664	0.3298473282862899	0.0005876357806544295	0.24882659602215695	0.0	0.0	0.0	0.0	0.0	0.0	-0.010127616154001077	-1.5411498078038819	0.004297057771641698	0.0	0.0	0.0
1.7775	-49.653871156588245	610.800877166593	-22.204907810315714	0.33091297994051544	0.00057994080449729	0.24857837964377877	0.0	0.0	0.0	0.0	0.0	0.0	-0.010960130463930282	-1.6678360140375665	0.004650286214652043	0.0	0.0	0.0
1.77875	-48.05250310499935	607.0646242653056	-22.15670193838281	0.3309976102928948	0.0005801333280157398	0.248846891581167	0.0	0.0	0.0	0.0	0.0	0.0	-0.010751730843876048	-1.6361232171158449	0.004561864102938475	0.0	0.0	0.0
1.78	-46.27685940097187	604.7645534182054	-22.905972556564635	0.33187995628254996	0.0005732982883148292	0.24847506539030575	0.0	0.0	0.0	0.0	0.0	0.0	-0.012001263734723376	-1.8262683949436205	0.005092029833737444	0.0	0.0	0.0
1.78125	-44.98448862076702	591.8864868464433	-22.33078574826333	0.33228868337369694	0.0005747438280977144	0.24995682914304468	0.0	0.0	0.0	0.0	0.0	0.0	-0.00969468439734242	-1.4752692804002943	0.004113368664427103	0.0	0.0	0.0
1.7825	-44.18496687882133	586.7995787696256	-22.652552707165732	0.3341855125760342	0.0005608761726197109	0.24945374619221486	0.0	0.0	0.0	0.0	0.0	0.0	-0.00974641749401983	-1.4831416613030788	0.0041353185588295415	0.0	0.0	0.0
1.78375	-43.06455960480375	579.7632482755513	-22.88621400635534	0.33514590927145893	0.000555433821439126	0.24976536653386125	0.0	0.0	0.0	0.0	0.0	0.0	-0.009569953112491461	-1.4562885456694223	0.004060446285775941	0.0	0.0	0.0
1.785	-42.63174993229966	575.4448689853222	-21.790036264021015	0.335871417340186	0.0005517417858057734	0.25015113915271964	0.0	0.0	0.0	0.0	0.0	0.0	-0.008173806557589862	-1.2438327256586492	0.0034680736767764802	0.0	0.0	0.0
1.78625	-41.46747973646607	568.8308990230479	-22.275419278271023	0.33568289585614847	0.0005533789041993224	0.25029397443748264	0.0	0.0	0.0	0.0	0.0	0.0	-0.007376816841864532	-1.1225524037611303	0.003129918004227314	0.0	0.0	0.0
1.7875	-41.05051273488945	562.3934317735449	-21.966401724479386	0.3380550879720087	0.0005363346215770182	0.24977195639310298	0.0	0.0	0.0	0.0	0.0	0.0	-0.008688667590175234	-1.3221806773729505	0.0036865246496159683	0.0	0.0	0.0
1.78875	-39.76316167074231	555.5243312250273	-22.576598745154357	0.3381950549394711	0.0005368069518414954	0.25027124300525333	0.0	0.0	0.0	0.0	0.0	0.0	-0.007565822034184978	-1.151313892288074	0.0032101112321490047	0.0	0.0	0.0
1.79	-38.714888708978535	556.1127187898339	-21.66248262576402	0.3387659583522977	0.0005301436144476567	0.24922696788581147	0.0	0.0	0.0	0.0	0.0	0.0	-0.00855517677341866	-1.301866978328709	0.00362988567921423	0.0	0.0	0.0
